<svg width="276" height="70" viewBox="0 0 276 70" fill="none" xmlns="http://www.w3.org/2000/svg">
<rect y="14" width="276" height="12" fill="white"/>
<rect y="44" width="276" height="12" fill="white"/>
<path d="M3.248 8C2.392 8 1.968 7.592 1.968 6.776V4.8H1.104V4H1.968V2.712H2.888V4H4.088V4.8H2.888V6.72C2.888 7.04 3.048 7.2 3.368 7.2H4.088V8H3.248ZM6.00888 8.128C5.21688 8.128 4.64088 7.616 4.64088 6.896C4.64088 6.16 5.24088 5.72 6.37688 5.6C7.14488 5.504 7.32888 5.408 7.31288 5.104C7.29688 4.824 7.03288 4.672 6.60088 4.672C6.03288 4.672 5.66488 4.936 5.66488 5.328L4.75288 5.248C4.75288 4.44 5.50488 3.872 6.55288 3.872C7.60088 3.872 8.24888 4.448 8.24888 5.376V8H7.32888V7.28C7.10488 7.808 6.63288 8.128 6.00888 8.128ZM6.24088 7.328C6.90488 7.328 7.32888 6.752 7.32888 5.896V5.864C7.16888 6.064 6.84888 6.192 6.43288 6.232C5.86488 6.296 5.58488 6.496 5.58488 6.816C5.58488 7.136 5.85688 7.328 6.24088 7.328ZM10.8564 8.128C9.72044 8.128 8.94444 7.552 8.92844 6.664L9.83244 6.584C9.84844 7.048 10.2564 7.328 10.8564 7.328C11.3364 7.328 11.6804 7.152 11.6804 6.84C11.6804 6.008 9.12844 6.656 9.12844 5.104C9.12844 4.28 9.84044 3.872 10.7764 3.872C11.7684 3.872 12.4324 4.336 12.4564 5.104L11.5444 5.184C11.5284 4.84 11.2244 4.672 10.7684 4.672C10.3604 4.672 10.0724 4.808 10.0724 5.064C10.0724 5.816 12.6244 5.24 12.6244 6.808C12.6244 7.616 11.9364 8.128 10.8564 8.128ZM13.4184 8V2.4H14.3384V5.544L15.9624 4H17.1704L15.6264 5.488L17.1864 8H16.0984L14.9704 6.12L14.3384 6.728V8H13.4184Z" fill="black"/>
<path d="M60.712 8.128C59.92 8.128 59.344 7.616 59.344 6.896C59.344 6.16 59.944 5.72 61.08 5.6C61.848 5.504 62.032 5.408 62.016 5.104C62 4.824 61.736 4.672 61.304 4.672C60.736 4.672 60.368 4.936 60.368 5.328L59.456 5.248C59.456 4.44 60.208 3.872 61.256 3.872C62.304 3.872 62.952 4.448 62.952 5.376V8H62.032V7.28C61.808 7.808 61.336 8.128 60.712 8.128ZM60.944 7.328C61.608 7.328 62.032 6.752 62.032 5.896V5.864C61.872 6.064 61.552 6.192 61.136 6.232C60.568 6.296 60.288 6.496 60.288 6.816C60.288 7.136 60.56 7.328 60.944 7.328ZM65.5605 8C64.7045 8 64.2805 7.592 64.2805 6.776V4.8H63.4165V4H64.2805V2.712H65.2005V4H67.0965V2.712H68.0165V4H69.2165V4.8H68.0165V6.72C68.0165 7.04 68.1765 7.2 68.4965 7.2H69.2165V8H68.3765C67.5205 8 67.0965 7.592 67.0965 6.776V4.8H65.2005V6.72C65.2005 7.04 65.3605 7.2 65.6805 7.2H66.4005V8H65.5605ZM71.1339 8.128C70.3419 8.128 69.7659 7.616 69.7659 6.896C69.7659 6.16 70.3659 5.72 71.5019 5.6C72.2699 5.504 72.4539 5.408 72.4379 5.104C72.4219 4.824 72.1579 4.672 71.7259 4.672C71.1579 4.672 70.7899 4.936 70.7899 5.328L69.8779 5.248C69.8779 4.44 70.6299 3.872 71.6779 3.872C72.7259 3.872 73.3739 4.448 73.3739 5.376V8H72.4539V7.28C72.2299 7.808 71.7579 8.128 71.1339 8.128ZM71.3659 7.328C72.0299 7.328 72.4539 6.752 72.4539 5.896V5.864C72.2939 6.064 71.9739 6.192 71.5579 6.232C70.9899 6.296 70.7099 6.496 70.7099 6.816C70.7099 7.136 70.9819 7.328 71.3659 7.328ZM76.1485 8.128C74.9485 8.128 74.1245 7.272 74.1245 6.008C74.1245 4.744 74.9485 3.872 76.1405 3.872C77.1725 3.872 77.9485 4.528 78.0525 5.496L77.0605 5.576C76.9805 5.016 76.6205 4.672 76.1245 4.672C75.5165 4.672 75.1245 5.2 75.1245 6.016C75.1245 6.816 75.5165 7.328 76.1245 7.328C76.6285 7.328 76.9805 7 77.0605 6.472L78.0525 6.552C77.9565 7.488 77.1885 8.128 76.1485 8.128ZM78.8481 8V2.4H79.7681V5.544L81.3921 4H82.6001L81.0561 5.488L82.6161 8H81.5281L80.4001 6.12L79.7681 6.728V8H78.8481ZM86.7393 8.128C85.6033 8.128 84.8273 7.552 84.8113 6.664L85.7153 6.584C85.7313 7.048 86.1393 7.328 86.7393 7.328C87.2193 7.328 87.5633 7.152 87.5633 6.84C87.5633 6.008 85.0113 6.656 85.0113 5.104C85.0113 4.28 85.7233 3.872 86.6593 3.872C87.6513 3.872 88.3153 4.336 88.3393 5.104L87.4273 5.184C87.4113 4.84 87.1073 4.672 86.6513 4.672C86.2433 4.672 85.9553 4.808 85.9553 5.064C85.9553 5.816 88.5073 5.24 88.5073 6.808C88.5073 7.616 87.8193 8.128 86.7393 8.128ZM90.5493 8.128C89.7173 8.128 89.2293 7.512 89.2293 6.472V4H90.1493V6.44C90.1493 7.008 90.4133 7.328 90.8613 7.328C91.4613 7.328 91.8533 6.776 91.8533 5.944V4H92.7733V8H91.8533V7.32C91.6053 7.816 91.1332 8.128 90.5493 8.128ZM95.6329 8.128C94.4329 8.128 93.6089 7.272 93.6089 6.008C93.6089 4.744 94.4329 3.872 95.6249 3.872C96.6569 3.872 97.4329 4.528 97.5369 5.496L96.5449 5.576C96.4649 5.016 96.1049 4.672 95.6089 4.672C95.0009 4.672 94.6089 5.2 94.6089 6.016C94.6089 6.816 95.0009 7.328 95.6089 7.328C96.1129 7.328 96.4649 7 96.5449 6.472L97.5369 6.552C97.4409 7.488 96.6729 8.128 95.6329 8.128ZM100.236 8.128C99.0036 8.128 98.1636 7.272 98.1636 5.992C98.1636 4.752 98.9716 3.872 100.108 3.872C101.252 3.872 102.036 4.744 102.036 6.016V6.264H99.1156C99.1156 6.896 99.5476 7.328 100.188 7.328C100.636 7.328 100.98 7.112 101.1 6.752L102.028 6.832C101.9 7.616 101.188 8.128 100.236 8.128ZM101.092 5.56C101.092 5.032 100.684 4.672 100.1 4.672C99.5156 4.672 99.1156 5.032 99.1156 5.56H101.092ZM104.552 8.128C103.416 8.128 102.64 7.552 102.624 6.664L103.528 6.584C103.544 7.048 103.952 7.328 104.552 7.328C105.032 7.328 105.376 7.152 105.376 6.84C105.376 6.008 102.824 6.656 102.824 5.104C102.824 4.28 103.536 3.872 104.472 3.872C105.464 3.872 106.128 4.336 106.152 5.104L105.24 5.184C105.224 4.84 104.92 4.672 104.464 4.672C104.056 4.672 103.768 4.808 103.768 5.064C103.768 5.816 106.32 5.24 106.32 6.808C106.32 7.616 105.632 8.128 104.552 8.128ZM108.802 8.128C107.666 8.128 106.89 7.552 106.874 6.664L107.778 6.584C107.794 7.048 108.202 7.328 108.802 7.328C109.282 7.328 109.626 7.152 109.626 6.84C109.626 6.008 107.074 6.656 107.074 5.104C107.074 4.28 107.786 3.872 108.722 3.872C109.714 3.872 110.378 4.336 110.402 5.104L109.49 5.184C109.474 4.84 109.17 4.672 108.714 4.672C108.306 4.672 108.018 4.808 108.018 5.064C108.018 5.816 110.57 5.24 110.57 6.808C110.57 7.616 109.882 8.128 108.802 8.128Z" fill="black"/>
<path d="M131.528 8V4H132.448V8H131.528ZM131.44 3.416V2.472H132.544V3.416H131.44ZM136.113 5.56C136.113 4.992 135.849 4.672 135.401 4.672C134.801 4.672 134.409 5.224 134.409 6.056V8H133.489V4H134.409V4.696C134.649 4.184 135.121 3.872 135.713 3.872C136.545 3.872 137.033 4.488 137.033 5.528V8H136.113V5.56ZM138.484 3.544C138.484 2.728 138.908 2.32 139.764 2.32H140.604V3.12H139.884C139.564 3.12 139.404 3.28 139.404 3.6V4H140.604V4.8H139.404V8H138.484V4.8H137.62V4H138.484V3.544ZM142.931 8.128C141.699 8.128 140.859 7.272 140.859 5.992C140.859 4.752 141.667 3.872 142.803 3.872C143.947 3.872 144.731 4.744 144.731 6.016V6.264H141.811C141.811 6.896 142.243 7.328 142.883 7.328C143.331 7.328 143.675 7.112 143.795 6.752L144.723 6.832C144.595 7.616 143.883 8.128 142.931 8.128ZM143.787 5.56C143.787 5.032 143.379 4.672 142.795 4.672C142.211 4.672 141.811 5.032 141.811 5.56H143.787ZM147.375 8.128C146.175 8.128 145.351 7.272 145.351 6.008C145.351 4.744 146.175 3.872 147.367 3.872C148.399 3.872 149.175 4.528 149.279 5.496L148.287 5.576C148.207 5.016 147.847 4.672 147.351 4.672C146.743 4.672 146.351 5.2 146.351 6.016C146.351 6.816 146.743 7.328 147.351 7.328C147.855 7.328 148.207 7 148.287 6.472L149.279 6.552C149.183 7.488 148.415 8.128 147.375 8.128ZM151.748 8C150.892 8 150.468 7.592 150.468 6.776V4.8H149.604V4H150.468V2.712H151.388V4H152.588V4.8H151.388V6.72C151.388 7.04 151.548 7.2 151.868 7.2H152.588V8H151.748ZM155.165 8.128C153.933 8.128 153.093 7.272 153.093 5.992C153.093 4.752 153.901 3.872 155.037 3.872C156.181 3.872 156.965 4.744 156.965 6.016V6.264H154.045C154.045 6.896 154.477 7.328 155.117 7.328C155.565 7.328 155.909 7.112 156.029 6.752L156.957 6.832C156.829 7.616 156.117 8.128 155.165 8.128ZM156.021 5.56C156.021 5.032 155.613 4.672 155.029 4.672C154.445 4.672 154.045 5.032 154.045 5.56H156.021ZM159.321 8.128C158.305 8.128 157.585 7.248 157.585 5.992C157.585 4.744 158.289 3.872 159.313 3.872C159.953 3.872 160.449 4.216 160.681 4.776V2.4H161.601V8H160.681V7.232C160.449 7.792 159.961 8.128 159.321 8.128ZM159.601 7.328C160.241 7.328 160.673 6.8 160.673 6C160.673 5.2 160.241 4.672 159.601 4.672C158.961 4.672 158.529 5.2 158.529 6C158.529 6.8 158.961 7.328 159.601 7.328ZM165.618 8.128C164.826 8.128 164.25 7.616 164.25 6.896C164.25 6.16 164.85 5.72 165.986 5.6C166.754 5.504 166.938 5.408 166.922 5.104C166.906 4.824 166.642 4.672 166.21 4.672C165.642 4.672 165.274 4.936 165.274 5.328L164.362 5.248C164.362 4.44 165.114 3.872 166.162 3.872C167.21 3.872 167.858 4.448 167.858 5.376V8H166.938V7.28C166.714 7.808 166.242 8.128 165.618 8.128ZM165.85 7.328C166.514 7.328 166.938 6.752 166.938 5.896V5.864C166.778 6.064 166.458 6.192 166.042 6.232C165.474 6.296 165.194 6.496 165.194 6.816C165.194 7.136 165.466 7.328 165.85 7.328ZM170.633 8.128C169.433 8.128 168.609 7.272 168.609 6.008C168.609 4.744 169.433 3.872 170.625 3.872C171.657 3.872 172.433 4.528 172.537 5.496L171.545 5.576C171.465 5.016 171.105 4.672 170.609 4.672C170.001 4.672 169.609 5.2 169.609 6.016C169.609 6.816 170.001 7.328 170.609 7.328C171.113 7.328 171.465 7 171.545 6.472L172.537 6.552C172.441 7.488 171.673 8.128 170.633 8.128ZM175.188 8.128C173.988 8.128 173.164 7.272 173.164 6.008C173.164 4.744 173.988 3.872 175.18 3.872C176.212 3.872 176.988 4.528 177.092 5.496L176.1 5.576C176.02 5.016 175.66 4.672 175.164 4.672C174.556 4.672 174.164 5.2 174.164 6.016C174.164 6.816 174.556 7.328 175.164 7.328C175.668 7.328 176.02 7 176.1 6.472L177.092 6.552C176.996 7.488 176.228 8.128 175.188 8.128ZM179.174 8.128C178.342 8.128 177.854 7.512 177.854 6.472V4H178.774V6.44C178.774 7.008 179.038 7.328 179.486 7.328C180.086 7.328 180.478 6.776 180.478 5.944V4H181.398V8H180.478V7.32C180.23 7.816 179.758 8.128 179.174 8.128ZM182.403 8V4H183.323V4.896C183.483 4.312 183.787 4 184.211 4H184.947V4.8H184.291C183.603 4.8 183.323 5.232 183.323 6.28V8H182.403ZM186.595 8.128C185.803 8.128 185.227 7.616 185.227 6.896C185.227 6.16 185.827 5.72 186.963 5.6C187.731 5.504 187.915 5.408 187.899 5.104C187.883 4.824 187.619 4.672 187.187 4.672C186.619 4.672 186.251 4.936 186.251 5.328L185.339 5.248C185.339 4.44 186.091 3.872 187.139 3.872C188.187 3.872 188.835 4.448 188.835 5.376V8H187.915V7.28C187.691 7.808 187.219 8.128 186.595 8.128ZM186.827 7.328C187.491 7.328 187.915 6.752 187.915 5.896V5.864C187.755 6.064 187.435 6.192 187.019 6.232C186.451 6.296 186.171 6.496 186.171 6.816C186.171 7.136 186.443 7.328 186.827 7.328ZM191.609 8.128C190.409 8.128 189.585 7.272 189.585 6.008C189.585 4.744 190.409 3.872 191.601 3.872C192.633 3.872 193.409 4.528 193.513 5.496L192.521 5.576C192.441 5.016 192.081 4.672 191.585 4.672C190.977 4.672 190.585 5.2 190.585 6.016C190.585 6.816 190.977 7.328 191.585 7.328C192.089 7.328 192.441 7 192.521 6.472L193.513 6.552C193.417 7.488 192.649 8.128 191.609 8.128ZM194.868 9.6L195.556 8L193.964 4H194.908L196.052 6.872L197.292 4H198.252L195.82 9.6H194.868Z" fill="black"/>
<path d="M221.336 8.128C220.136 8.128 219.312 7.272 219.312 6.008C219.312 4.744 220.136 3.872 221.328 3.872C222.36 3.872 223.136 4.528 223.24 5.496L222.248 5.576C222.168 5.016 221.808 4.672 221.312 4.672C220.704 4.672 220.312 5.2 220.312 6.016C220.312 6.816 220.704 7.328 221.312 7.328C221.816 7.328 222.168 7 222.248 6.472L223.24 6.552C223.144 7.488 222.376 8.128 221.336 8.128ZM224.084 8V2.32H225.004V8H224.084ZM227.907 8.128C226.675 8.128 225.835 7.272 225.835 5.992C225.835 4.752 226.643 3.872 227.779 3.872C228.923 3.872 229.707 4.744 229.707 6.016V6.264H226.787C226.787 6.896 227.219 7.328 227.859 7.328C228.307 7.328 228.651 7.112 228.771 6.752L229.699 6.832C229.571 7.616 228.859 8.128 227.907 8.128ZM228.763 5.56C228.763 5.032 228.355 4.672 227.771 4.672C227.187 4.672 226.787 5.032 226.787 5.56H228.763ZM231.728 8.128C230.936 8.128 230.36 7.616 230.36 6.896C230.36 6.16 230.96 5.72 232.096 5.6C232.864 5.504 233.048 5.408 233.032 5.104C233.016 4.824 232.752 4.672 232.32 4.672C231.752 4.672 231.384 4.936 231.384 5.328L230.472 5.248C230.472 4.44 231.224 3.872 232.272 3.872C233.32 3.872 233.968 4.448 233.968 5.376V8H233.048V7.28C232.824 7.808 232.352 8.128 231.728 8.128ZM231.96 7.328C232.624 7.328 233.048 6.752 233.048 5.896V5.864C232.888 6.064 232.568 6.192 232.152 6.232C231.584 6.296 231.304 6.496 231.304 6.816C231.304 7.136 231.576 7.328 231.96 7.328ZM237.511 5.56C237.511 4.992 237.247 4.672 236.799 4.672C236.199 4.672 235.807 5.224 235.807 6.056V8H234.887V4H235.807V4.696C236.047 4.184 236.519 3.872 237.111 3.872C237.943 3.872 238.431 4.488 238.431 5.528V8H237.511V5.56ZM242.368 8.128C241.576 8.128 241 7.616 241 6.896C241 6.16 241.6 5.72 242.736 5.6C243.504 5.504 243.688 5.408 243.672 5.104C243.656 4.824 243.392 4.672 242.96 4.672C242.392 4.672 242.024 4.936 242.024 5.328L241.112 5.248C241.112 4.44 241.864 3.872 242.912 3.872C243.96 3.872 244.608 4.448 244.608 5.376V8H243.688V7.28C243.464 7.808 242.992 8.128 242.368 8.128ZM242.6 7.328C243.264 7.328 243.688 6.752 243.688 5.896V5.864C243.528 6.064 243.208 6.192 242.792 6.232C242.224 6.296 241.944 6.496 241.944 6.816C241.944 7.136 242.216 7.328 242.6 7.328ZM247.383 8.128C246.183 8.128 245.359 7.272 245.359 6.008C245.359 4.744 246.183 3.872 247.375 3.872C248.407 3.872 249.183 4.528 249.287 5.496L248.295 5.576C248.215 5.016 247.855 4.672 247.359 4.672C246.751 4.672 246.359 5.2 246.359 6.016C246.359 6.816 246.751 7.328 247.359 7.328C247.863 7.328 248.215 7 248.295 6.472L249.287 6.552C249.191 7.488 248.423 8.128 247.383 8.128ZM251.938 8.128C250.738 8.128 249.914 7.272 249.914 6.008C249.914 4.744 250.738 3.872 251.93 3.872C252.962 3.872 253.738 4.528 253.842 5.496L252.85 5.576C252.77 5.016 252.41 4.672 251.914 4.672C251.306 4.672 250.914 5.2 250.914 6.016C250.914 6.816 251.306 7.328 251.914 7.328C252.418 7.328 252.77 7 252.85 6.472L253.842 6.552C253.746 7.488 252.978 8.128 251.938 8.128ZM255.924 8.128C255.092 8.128 254.604 7.512 254.604 6.472V4H255.524V6.44C255.524 7.008 255.788 7.328 256.236 7.328C256.836 7.328 257.228 6.776 257.228 5.944V4H258.148V8H257.228V7.32C256.98 7.816 256.508 8.128 255.924 8.128ZM259.153 8V4H260.073V4.896C260.233 4.312 260.537 4 260.961 4H261.697V4.8H261.041C260.353 4.8 260.073 5.232 260.073 6.28V8H259.153ZM263.345 8.128C262.553 8.128 261.977 7.616 261.977 6.896C261.977 6.16 262.577 5.72 263.713 5.6C264.481 5.504 264.665 5.408 264.649 5.104C264.633 4.824 264.369 4.672 263.937 4.672C263.369 4.672 263.001 4.936 263.001 5.328L262.089 5.248C262.089 4.44 262.841 3.872 263.889 3.872C264.937 3.872 265.585 4.448 265.585 5.376V8H264.665V7.28C264.441 7.808 263.969 8.128 263.345 8.128ZM263.577 7.328C264.241 7.328 264.665 6.752 264.665 5.896V5.864C264.505 6.064 264.185 6.192 263.769 6.232C263.201 6.296 262.921 6.496 262.921 6.816C262.921 7.136 263.193 7.328 263.577 7.328ZM268.359 8.128C267.159 8.128 266.335 7.272 266.335 6.008C266.335 4.744 267.159 3.872 268.351 3.872C269.383 3.872 270.159 4.528 270.263 5.496L269.271 5.576C269.191 5.016 268.831 4.672 268.335 4.672C267.727 4.672 267.335 5.2 267.335 6.016C267.335 6.816 267.727 7.328 268.335 7.328C268.839 7.328 269.191 7 269.271 6.472L270.263 6.552C270.167 7.488 269.399 8.128 268.359 8.128ZM271.618 9.6L272.306 8L270.714 4H271.658L272.802 6.872L274.042 4H275.002L272.57 9.6H271.618Z" fill="black"/>
<path d="M3.088 23.128C2.072 23.128 1.36 22.256 1.36 21C1.36 19.752 2.072 18.872 3.096 18.872C3.768 18.872 4.272 19.248 4.456 19.848V17.4H5.056V23H4.456V22.144C4.272 22.744 3.76 23.128 3.088 23.128ZM3.216 22.544C3.952 22.544 4.448 21.92 4.448 21C4.448 20.08 3.952 19.456 3.216 19.456C2.48 19.456 1.984 20.08 1.984 21C1.984 21.92 2.48 22.544 3.216 22.544ZM6.29531 23V19H6.89531V23H6.29531ZM6.22331 18.36V17.608H6.97531V18.36H6.22331ZM9.62913 24.728C8.67713 24.728 7.97313 24.208 7.94113 23.488L8.56513 23.408C8.59713 23.84 9.03713 24.144 9.62913 24.144C10.3971 24.144 10.9091 23.632 10.9091 22.848V22.144C10.7251 22.744 10.2131 23.128 9.54113 23.128C8.52513 23.128 7.81313 22.256 7.81313 21C7.81313 19.752 8.52513 18.872 9.54913 18.872C10.2211 18.872 10.7251 19.248 10.9091 19.848V19H11.5091V22.848C11.5091 23.976 10.7651 24.728 9.62913 24.728ZM9.66913 22.544C10.4051 22.544 10.9011 21.92 10.9011 21C10.9011 20.08 10.4051 19.456 9.66913 19.456C8.93313 19.456 8.43713 20.08 8.43713 21C8.43713 21.92 8.93313 22.544 9.66913 22.544ZM12.7094 23V19H13.3094V23H12.7094ZM12.6374 18.36V17.608H13.3894V18.36H12.6374ZM15.9712 23C15.2192 23 14.8512 22.632 14.8512 21.88V19.584H13.9872V19H14.8512V17.72H15.4512V19H16.6512V19.584H15.4512V21.936C15.4512 22.256 15.6112 22.416 15.9312 22.416H16.6512V23H15.9712Z" fill="black"/>
<path d="M61.224 23.128C60.328 23.128 59.68 22.6 59.4 21.632L60.048 21.552C60.288 22.208 60.728 22.544 61.328 22.544C62.296 22.544 62.848 21.672 62.92 20.064C62.704 20.712 62.128 21.12 61.352 21.12C60.264 21.12 59.456 20.32 59.456 19.232C59.456 18.112 60.296 17.272 61.408 17.272C62.68 17.272 63.488 18.4 63.488 20.192C63.488 21.952 62.584 23.128 61.224 23.128ZM61.384 20.536C62.16 20.536 62.712 19.984 62.712 19.192C62.712 18.4 62.168 17.856 61.392 17.856C60.608 17.856 60.08 18.4 60.08 19.192C60.08 19.984 60.608 20.536 61.384 20.536ZM66.3688 23.128C65.1048 23.128 64.2888 21.984 64.2888 20.208C64.2888 18.432 65.1848 17.272 66.5528 17.272C67.4488 17.272 68.0968 17.808 68.3767 18.768L67.7288 18.848C67.4888 18.192 67.0488 17.856 66.4488 17.856C65.4808 17.856 64.9288 18.728 64.8568 20.328C65.0728 19.688 65.6488 19.28 66.4248 19.28C67.5208 19.28 68.3208 20.08 68.3208 21.168C68.3208 22.28 67.4728 23.128 66.3688 23.128ZM66.3928 22.544C67.1688 22.544 67.6968 22 67.6968 21.2C67.6968 20.408 67.1688 19.864 66.3928 19.864C65.6168 19.864 65.0648 20.424 65.0648 21.208C65.0648 21.992 65.6168 22.544 66.3928 22.544ZM68.9809 23V22.2H69.7809V23H68.9809ZM72.3844 23.128C71.1204 23.128 70.3044 21.984 70.3044 20.208C70.3044 18.432 71.2004 17.272 72.5684 17.272C73.4644 17.272 74.1124 17.808 74.3924 18.768L73.7444 18.848C73.5044 18.192 73.0644 17.856 72.4644 17.856C71.4964 17.856 70.9444 18.728 70.8724 20.328C71.0884 19.688 71.6644 19.28 72.4404 19.28C73.5364 19.28 74.3364 20.08 74.3364 21.168C74.3364 22.28 73.4884 23.128 72.3844 23.128ZM72.4084 22.544C73.1844 22.544 73.7124 22 73.7124 21.2C73.7124 20.408 73.1844 19.864 72.4084 19.864C71.6324 19.864 71.0804 20.424 71.0804 21.208C71.0804 21.992 71.6324 22.544 72.4084 22.544ZM75.3528 23L79.5448 17.272H80.2328L76.0408 23H75.3528ZM79.1928 23.128C78.4408 23.128 77.8328 22.52 77.8328 21.768C77.8328 21.016 78.4408 20.408 79.1928 20.408C79.9448 20.408 80.5528 21.016 80.5528 21.768C80.5528 22.52 79.9448 23.128 79.1928 23.128ZM79.1928 22.544C79.6248 22.544 79.9688 22.2 79.9688 21.768C79.9688 21.336 79.6248 20.992 79.1928 20.992C78.7608 20.992 78.4168 21.336 78.4168 21.768C78.4168 22.2 78.7608 22.544 79.1928 22.544ZM76.3128 19.992C75.5608 19.992 74.9528 19.384 74.9528 18.632C74.9528 17.88 75.5608 17.272 76.3128 17.272C77.0648 17.272 77.6728 17.88 77.6728 18.632C77.6728 19.384 77.0648 19.992 76.3128 19.992ZM76.3128 19.408C76.7448 19.408 77.0888 19.064 77.0888 18.632C77.0888 18.2 76.7448 17.856 76.3128 17.856C75.8808 17.856 75.5368 18.2 75.5368 18.632C75.5368 19.064 75.8808 19.408 76.3128 19.408Z" fill="black"/>
<path d="M133.224 23.128C132.328 23.128 131.68 22.6 131.4 21.632L132.048 21.552C132.288 22.208 132.728 22.544 133.328 22.544C134.296 22.544 134.848 21.672 134.92 20.064C134.704 20.712 134.128 21.12 133.352 21.12C132.264 21.12 131.456 20.32 131.456 19.232C131.456 18.112 132.296 17.272 133.408 17.272C134.68 17.272 135.488 18.4 135.488 20.192C135.488 21.952 134.584 23.128 133.224 23.128ZM133.384 20.536C134.16 20.536 134.712 19.984 134.712 19.192C134.712 18.4 134.168 17.856 133.392 17.856C132.608 17.856 132.08 18.4 132.08 19.192C132.08 19.984 132.608 20.536 133.384 20.536ZM137.182 23C137.182 20.552 137.79 18.896 139.022 17.984H135.974V17.4H139.814V17.984C138.478 18.792 137.806 20.464 137.806 23H137.182ZM139.856 23V22.2H140.656V23H139.856ZM143.423 23.128C142.199 23.128 141.343 22.44 141.343 21.448L141.967 21.368C141.967 22.064 142.567 22.544 143.439 22.544C144.271 22.544 144.831 22.104 144.831 21.464C144.831 20.808 144.247 20.384 143.359 20.384H142.719V19.8H143.359C144.127 19.8 144.639 19.416 144.639 18.832C144.639 18.248 144.135 17.856 143.399 17.856C142.687 17.856 142.191 18.216 142.159 18.768L141.535 18.688C141.567 17.84 142.319 17.272 143.391 17.272C144.503 17.272 145.247 17.88 145.247 18.792C145.247 19.408 144.911 19.888 144.399 20.08C145.039 20.264 145.455 20.792 145.455 21.488C145.455 22.464 144.631 23.128 143.423 23.128ZM146.572 23L150.764 17.272H151.452L147.26 23H146.572ZM150.412 23.128C149.66 23.128 149.052 22.52 149.052 21.768C149.052 21.016 149.66 20.408 150.412 20.408C151.164 20.408 151.772 21.016 151.772 21.768C151.772 22.52 151.164 23.128 150.412 23.128ZM150.412 22.544C150.844 22.544 151.188 22.2 151.188 21.768C151.188 21.336 150.844 20.992 150.412 20.992C149.98 20.992 149.636 21.336 149.636 21.768C149.636 22.2 149.98 22.544 150.412 22.544ZM147.532 19.992C146.78 19.992 146.172 19.384 146.172 18.632C146.172 17.88 146.78 17.272 147.532 17.272C148.284 17.272 148.892 17.88 148.892 18.632C148.892 19.384 148.284 19.992 147.532 19.992ZM147.532 19.408C147.964 19.408 148.308 19.064 148.308 18.632C148.308 18.2 147.964 17.856 147.532 17.856C147.1 17.856 146.756 18.2 146.756 18.632C146.756 19.064 147.1 19.408 147.532 19.408Z" fill="black"/>
<path d="M221.224 23.128C220.328 23.128 219.68 22.6 219.4 21.632L220.048 21.552C220.288 22.208 220.728 22.544 221.328 22.544C222.296 22.544 222.848 21.672 222.92 20.064C222.704 20.712 222.128 21.12 221.352 21.12C220.264 21.12 219.456 20.32 219.456 19.232C219.456 18.112 220.296 17.272 221.408 17.272C222.68 17.272 223.488 18.4 223.488 20.192C223.488 21.952 222.584 23.128 221.224 23.128ZM221.384 20.536C222.16 20.536 222.712 19.984 222.712 19.192C222.712 18.4 222.168 17.856 221.392 17.856C220.608 17.856 220.08 18.4 220.08 19.192C220.08 19.984 220.608 20.536 221.384 20.536ZM226.369 23.128C225.105 23.128 224.289 21.984 224.289 20.208C224.289 18.432 225.185 17.272 226.553 17.272C227.449 17.272 228.097 17.808 228.377 18.768L227.729 18.848C227.489 18.192 227.049 17.856 226.449 17.856C225.481 17.856 224.929 18.728 224.857 20.328C225.073 19.688 225.649 19.28 226.425 19.28C227.521 19.28 228.321 20.08 228.321 21.168C228.321 22.28 227.473 23.128 226.369 23.128ZM226.393 22.544C227.169 22.544 227.697 22 227.697 21.2C227.697 20.408 227.169 19.864 226.393 19.864C225.617 19.864 225.065 20.424 225.065 21.208C225.065 21.992 225.617 22.544 226.393 22.544ZM228.981 23V22.2H229.781V23H228.981ZM232.568 23.128C231.248 23.128 230.384 21.968 230.384 20.2C230.384 18.432 231.248 17.272 232.568 17.272C233.888 17.272 234.752 18.432 234.752 20.2C234.752 21.968 233.888 23.128 232.568 23.128ZM232.568 22.544C233.536 22.544 234.128 21.648 234.128 20.2C234.128 18.752 233.536 17.856 232.568 17.856C231.6 17.856 231.008 18.752 231.008 20.2C231.008 21.648 231.6 22.544 232.568 22.544ZM235.876 23L240.068 17.272H240.756L236.564 23H235.876ZM239.716 23.128C238.964 23.128 238.356 22.52 238.356 21.768C238.356 21.016 238.964 20.408 239.716 20.408C240.468 20.408 241.076 21.016 241.076 21.768C241.076 22.52 240.468 23.128 239.716 23.128ZM239.716 22.544C240.148 22.544 240.492 22.2 240.492 21.768C240.492 21.336 240.148 20.992 239.716 20.992C239.284 20.992 238.94 21.336 238.94 21.768C238.94 22.2 239.284 22.544 239.716 22.544ZM236.836 19.992C236.084 19.992 235.476 19.384 235.476 18.632C235.476 17.88 236.084 17.272 236.836 17.272C237.588 17.272 238.196 17.88 238.196 18.632C238.196 19.384 237.588 19.992 236.836 19.992ZM236.836 19.408C237.268 19.408 237.612 19.064 237.612 18.632C237.612 18.2 237.268 17.856 236.836 17.856C236.404 17.856 236.06 18.2 236.06 18.632C236.06 19.064 236.404 19.408 236.836 19.408Z" fill="black"/>
<path d="M3.104 38C2.352 38 1.984 37.632 1.984 36.88V34.584H1.12V34H1.984V32.72H2.584V34H3.784V34.584H2.584V36.936C2.584 37.256 2.744 37.416 3.064 37.416H3.784V38H3.104ZM4.62344 38V34H5.22344V35.056C5.35144 34.384 5.66344 34 6.11144 34H6.84744V34.584H6.19144C5.55144 34.584 5.22344 35.128 5.22344 36.176V38H4.62344ZM8.54869 38.128C7.78069 38.128 7.20469 37.592 7.20469 36.872C7.20469 36.12 7.83669 35.64 8.95669 35.544C9.60469 35.48 9.89269 35.304 9.86869 34.984C9.84469 34.656 9.49269 34.456 8.95669 34.456C8.30869 34.456 7.89269 34.784 7.89269 35.296L7.30869 35.216C7.30869 34.448 8.05269 33.872 9.03669 33.872C9.97269 33.872 10.4927 34.408 10.4927 35.352V38H9.89269V37.12C9.70869 37.736 9.20469 38.128 8.54869 38.128ZM8.66869 37.544C9.38869 37.544 9.89269 36.936 9.89269 36.056V35.736C9.74069 35.912 9.44469 36.016 8.99669 36.056C8.23669 36.12 7.82869 36.392 7.82869 36.84C7.82869 37.256 8.17269 37.544 8.66869 37.544ZM11.9224 33.44C11.9224 32.688 12.2904 32.32 13.0424 32.32H13.7224V32.904H13.0024C12.6824 32.904 12.5224 33.064 12.5224 33.384V34H14.4264V33.44C14.4264 32.688 14.7944 32.32 15.5464 32.32H16.2264V32.904H15.5064C15.1864 32.904 15.0264 33.064 15.0264 33.384V34H16.2264V34.584H15.0264V38H14.4264V34.584H12.5224V38H11.9224V34.584H11.0584V34H11.9224V33.44ZM17.0219 38V34H17.6219V38H17.0219ZM16.9499 33.36V32.608H17.7019V33.36H16.9499ZM20.4277 38.128C19.3077 38.128 18.5397 37.264 18.5397 36.008C18.5397 34.752 19.3077 33.872 20.4197 33.872C21.3877 33.872 22.1077 34.528 22.1877 35.464L21.5637 35.544C21.5157 34.896 21.0517 34.456 20.4197 34.456C19.6677 34.456 19.1637 35.08 19.1637 36.008C19.1637 36.928 19.6677 37.544 20.4197 37.544C21.0517 37.544 21.5157 37.12 21.5637 36.504L22.1877 36.584C22.1077 37.496 21.3877 38.128 20.4277 38.128ZM26.6109 38.128C25.6349 38.128 24.8669 37.584 24.8669 36.64L25.4509 36.56C25.4509 37.2 25.9949 37.544 26.6349 37.544C27.1389 37.544 27.6269 37.328 27.6269 36.888C27.6269 35.88 25.0749 36.464 25.0749 35.016C25.0749 34.216 25.8509 33.872 26.6189 33.872C27.4189 33.872 28.0829 34.248 28.0829 35.024L27.4989 35.104C27.4989 34.64 27.0669 34.456 26.5789 34.456C26.1469 34.456 25.6989 34.6 25.6989 34.984C25.6989 35.888 28.2509 35.392 28.2509 36.864C28.2509 37.608 27.5709 38.128 26.6109 38.128ZM29.1313 38V34H29.7313V38H29.1313ZM29.0592 33.36V32.608H29.8113V33.36H29.0592ZM32.4651 39.728C31.5131 39.728 30.8091 39.208 30.7771 38.488L31.4011 38.408C31.4331 38.84 31.8731 39.144 32.4651 39.144C33.2331 39.144 33.7451 38.632 33.7451 37.848V37.144C33.5611 37.744 33.0491 38.128 32.3771 38.128C31.3611 38.128 30.6491 37.256 30.6491 36C30.6491 34.752 31.3611 33.872 32.3851 33.872C33.0571 33.872 33.5611 34.248 33.7451 34.848V34H34.3451V37.848C34.3451 38.976 33.6011 39.728 32.4651 39.728ZM32.5051 37.544C33.2411 37.544 33.7371 36.92 33.7371 36C33.7371 35.08 33.2411 34.456 32.5051 34.456C31.7691 34.456 31.2731 35.08 31.2731 36C31.2731 36.92 31.7691 37.544 32.5051 37.544ZM38.2084 35.368C38.2084 34.792 37.9044 34.456 37.3844 34.456C36.6644 34.456 36.1844 35.088 36.1844 36.056V38H35.5844V34H36.1844V34.712C36.4084 34.208 36.9044 33.872 37.5124 33.872C38.3044 33.872 38.8084 34.448 38.8084 35.368V38H38.2084V35.368Z" fill="black"/>
<path d="M59.48 38V37.416H60.92V33.544C60.768 33.984 60.32 34.264 59.712 34.264H59.48V33.68H59.712C60.552 33.68 60.92 33.288 60.92 32.4H61.544V37.416H62.984V38H59.48ZM65.6465 38.128C64.3265 38.128 63.4625 36.968 63.4625 35.2C63.4625 33.432 64.3265 32.272 65.6465 32.272C66.9665 32.272 67.8305 33.432 67.8305 35.2C67.8305 36.968 66.9665 38.128 65.6465 38.128ZM65.6465 37.544C66.6145 37.544 67.2065 36.648 67.2065 35.2C67.2065 33.752 66.6145 32.856 65.6465 32.856C64.6785 32.856 64.0865 33.752 64.0865 35.2C64.0865 36.648 64.6785 37.544 65.6465 37.544ZM70.8965 38.128C69.5765 38.128 68.7125 36.968 68.7125 35.2C68.7125 33.432 69.5765 32.272 70.8965 32.272C72.2165 32.272 73.0805 33.432 73.0805 35.2C73.0805 36.968 72.2165 38.128 70.8965 38.128ZM70.8965 37.544C71.8645 37.544 72.4565 36.648 72.4565 35.2C72.4565 33.752 71.8645 32.856 70.8965 32.856C69.9285 32.856 69.3365 33.752 69.3365 35.2C69.3365 36.648 69.9285 37.544 70.8965 37.544ZM74.2044 38L78.3964 32.272H79.0844L74.8924 38H74.2044ZM78.0444 38.128C77.2924 38.128 76.6844 37.52 76.6844 36.768C76.6844 36.016 77.2924 35.408 78.0444 35.408C78.7964 35.408 79.4044 36.016 79.4044 36.768C79.4044 37.52 78.7964 38.128 78.0444 38.128ZM78.0444 37.544C78.4764 37.544 78.8204 37.2 78.8204 36.768C78.8204 36.336 78.4764 35.992 78.0444 35.992C77.6124 35.992 77.2684 36.336 77.2684 36.768C77.2684 37.2 77.6124 37.544 78.0444 37.544ZM75.1644 34.992C74.4124 34.992 73.8044 34.384 73.8044 33.632C73.8044 32.88 74.4124 32.272 75.1644 32.272C75.9164 32.272 76.5244 32.88 76.5244 33.632C76.5244 34.384 75.9164 34.992 75.1644 34.992ZM75.1644 34.408C75.5964 34.408 75.9404 34.064 75.9404 33.632C75.9404 33.2 75.5964 32.856 75.1644 32.856C74.7324 32.856 74.3884 33.2 74.3884 33.632C74.3884 34.064 74.7324 34.408 75.1644 34.408Z" fill="black"/>
<path d="M133.48 38.128C132.192 38.128 131.32 37.472 131.32 36.496C131.32 35.768 131.792 35.208 132.504 35.072C131.912 34.896 131.528 34.408 131.528 33.776C131.528 32.88 132.32 32.272 133.472 32.272C134.624 32.272 135.416 32.88 135.416 33.776C135.416 34.408 135.024 34.904 134.432 35.072C135.144 35.216 135.624 35.768 135.624 36.504C135.624 37.48 134.768 38.128 133.48 38.128ZM133.472 37.544C134.392 37.544 135 37.112 135 36.456C135 35.8 134.4 35.376 133.472 35.376C132.544 35.376 131.944 35.8 131.944 36.456C131.944 37.112 132.552 37.544 133.472 37.544ZM133.472 34.792C134.264 34.792 134.792 34.4 134.792 33.816C134.792 33.232 134.272 32.856 133.472 32.856C132.672 32.856 132.152 33.232 132.152 33.816C132.152 34.4 132.68 34.792 133.472 34.792ZM138.289 38.128C137.201 38.128 136.425 37.456 136.345 36.448L136.969 36.368C136.969 37.056 137.529 37.552 138.321 37.552C139.153 37.552 139.705 36.992 139.705 36.128C139.705 35.288 139.177 34.728 138.377 34.728C137.777 34.728 137.257 35.032 137.057 35.504L136.449 35.424L136.833 32.4H139.905V32.984H137.385L137.121 34.688C137.433 34.36 137.905 34.176 138.441 34.176C139.553 34.176 140.329 34.976 140.329 36.128C140.329 37.312 139.489 38.128 138.289 38.128ZM141.012 38V37.2H141.812V38H141.012ZM144.416 38.128C143.152 38.128 142.336 36.984 142.336 35.208C142.336 33.432 143.232 32.272 144.6 32.272C145.496 32.272 146.144 32.808 146.424 33.768L145.776 33.848C145.536 33.192 145.096 32.856 144.496 32.856C143.528 32.856 142.976 33.728 142.904 35.328C143.12 34.688 143.696 34.28 144.472 34.28C145.568 34.28 146.368 35.08 146.368 36.168C146.368 37.28 145.52 38.128 144.416 38.128ZM144.44 37.544C145.216 37.544 145.744 37 145.744 36.2C145.744 35.408 145.216 34.864 144.44 34.864C143.664 34.864 143.112 35.424 143.112 36.208C143.112 36.992 143.664 37.544 144.44 37.544ZM147.384 38L151.576 32.272H152.264L148.072 38H147.384ZM151.224 38.128C150.472 38.128 149.864 37.52 149.864 36.768C149.864 36.016 150.472 35.408 151.224 35.408C151.976 35.408 152.584 36.016 152.584 36.768C152.584 37.52 151.976 38.128 151.224 38.128ZM151.224 37.544C151.656 37.544 152 37.2 152 36.768C152 36.336 151.656 35.992 151.224 35.992C150.792 35.992 150.448 36.336 150.448 36.768C150.448 37.2 150.792 37.544 151.224 37.544ZM148.344 34.992C147.592 34.992 146.984 34.384 146.984 33.632C146.984 32.88 147.592 32.272 148.344 32.272C149.096 32.272 149.704 32.88 149.704 33.632C149.704 34.384 149.096 34.992 148.344 34.992ZM148.344 34.408C148.776 34.408 149.12 34.064 149.12 33.632C149.12 33.2 148.776 32.856 148.344 32.856C147.912 32.856 147.568 33.2 147.568 33.632C147.568 34.064 147.912 34.408 148.344 34.408Z" fill="black"/>
<path d="M221.48 38.128C220.192 38.128 219.32 37.472 219.32 36.496C219.32 35.768 219.792 35.208 220.504 35.072C219.912 34.896 219.528 34.408 219.528 33.776C219.528 32.88 220.32 32.272 221.472 32.272C222.624 32.272 223.416 32.88 223.416 33.776C223.416 34.408 223.024 34.904 222.432 35.072C223.144 35.216 223.624 35.768 223.624 36.504C223.624 37.48 222.768 38.128 221.48 38.128ZM221.472 37.544C222.392 37.544 223 37.112 223 36.456C223 35.8 222.4 35.376 221.472 35.376C220.544 35.376 219.944 35.8 219.944 36.456C219.944 37.112 220.552 37.544 221.472 37.544ZM221.472 34.792C222.264 34.792 222.792 34.4 222.792 33.816C222.792 33.232 222.272 32.856 221.472 32.856C220.672 32.856 220.152 33.232 220.152 33.816C220.152 34.4 220.68 34.792 221.472 34.792ZM224.345 35.872C225.169 35.248 225.529 34.192 225.529 32.4H226.153C226.153 34.008 225.825 35.152 225.153 35.872H227.513V32.4H228.137V35.872H229.017V36.456H228.137V38H227.513V36.456H224.345V35.872ZM229.543 38V37.2H230.343V38H229.543ZM231.675 38C231.675 35.552 232.283 33.896 233.515 32.984H230.467V32.4H234.307V32.984C232.971 33.792 232.299 35.464 232.299 38H231.675ZM235.189 38L239.381 32.272H240.069L235.877 38H235.189ZM239.029 38.128C238.277 38.128 237.669 37.52 237.669 36.768C237.669 36.016 238.277 35.408 239.029 35.408C239.781 35.408 240.389 36.016 240.389 36.768C240.389 37.52 239.781 38.128 239.029 38.128ZM239.029 37.544C239.461 37.544 239.805 37.2 239.805 36.768C239.805 36.336 239.461 35.992 239.029 35.992C238.597 35.992 238.253 36.336 238.253 36.768C238.253 37.2 238.597 37.544 239.029 37.544ZM236.149 34.992C235.397 34.992 234.789 34.384 234.789 33.632C234.789 32.88 235.397 32.272 236.149 32.272C236.901 32.272 237.509 32.88 237.509 33.632C237.509 34.384 236.901 34.992 236.149 34.992ZM236.149 34.408C236.581 34.408 236.925 34.064 236.925 33.632C236.925 33.2 236.581 32.856 236.149 32.856C235.717 32.856 235.373 33.2 235.373 33.632C235.373 34.064 235.717 34.408 236.149 34.408Z" fill="black"/>
<path d="M133.224 53.128C132.328 53.128 131.68 52.6 131.4 51.632L132.048 51.552C132.288 52.208 132.728 52.544 133.328 52.544C134.296 52.544 134.848 51.672 134.92 50.064C134.704 50.712 134.128 51.12 133.352 51.12C132.264 51.12 131.456 50.32 131.456 49.232C131.456 48.112 132.296 47.272 133.408 47.272C134.68 47.272 135.488 48.4 135.488 50.192C135.488 51.952 134.584 53.128 133.224 53.128ZM133.384 50.536C134.16 50.536 134.712 49.984 134.712 49.192C134.712 48.4 134.168 47.856 133.392 47.856C132.608 47.856 132.08 48.4 132.08 49.192C132.08 49.984 132.608 50.536 133.384 50.536ZM136.371 53V52.416H137.811V48.544C137.659 48.984 137.211 49.264 136.603 49.264H136.371V48.68H136.603C137.443 48.68 137.811 48.288 137.811 47.4H138.435V52.416H139.875V53H136.371ZM140.629 53V52.2H141.429V53H140.629ZM144.355 53.128C143.067 53.128 142.195 52.472 142.195 51.496C142.195 50.768 142.667 50.208 143.379 50.072C142.787 49.896 142.403 49.408 142.403 48.776C142.403 47.88 143.195 47.272 144.347 47.272C145.499 47.272 146.291 47.88 146.291 48.776C146.291 49.408 145.899 49.904 145.307 50.072C146.019 50.216 146.499 50.768 146.499 51.504C146.499 52.48 145.643 53.128 144.355 53.128ZM144.347 52.544C145.267 52.544 145.875 52.112 145.875 51.456C145.875 50.8 145.275 50.376 144.347 50.376C143.419 50.376 142.819 50.8 142.819 51.456C142.819 52.112 143.427 52.544 144.347 52.544ZM144.347 49.792C145.139 49.792 145.667 49.4 145.667 48.816C145.667 48.232 145.147 47.856 144.347 47.856C143.547 47.856 143.027 48.232 143.027 48.816C143.027 49.4 143.555 49.792 144.347 49.792ZM147.54 53L151.732 47.272H152.42L148.228 53H147.54ZM151.38 53.128C150.628 53.128 150.02 52.52 150.02 51.768C150.02 51.016 150.628 50.408 151.38 50.408C152.132 50.408 152.74 51.016 152.74 51.768C152.74 52.52 152.132 53.128 151.38 53.128ZM151.38 52.544C151.812 52.544 152.156 52.2 152.156 51.768C152.156 51.336 151.812 50.992 151.38 50.992C150.948 50.992 150.604 51.336 150.604 51.768C150.604 52.2 150.948 52.544 151.38 52.544ZM148.5 49.992C147.748 49.992 147.14 49.384 147.14 48.632C147.14 47.88 147.748 47.272 148.5 47.272C149.252 47.272 149.86 47.88 149.86 48.632C149.86 49.384 149.252 49.992 148.5 49.992ZM148.5 49.408C148.932 49.408 149.276 49.064 149.276 48.632C149.276 48.2 148.932 47.856 148.5 47.856C148.068 47.856 147.724 48.2 147.724 48.632C147.724 49.064 148.068 49.408 148.5 49.408Z" fill="black"/>
<path d="M221.224 53.128C220.328 53.128 219.68 52.6 219.4 51.632L220.048 51.552C220.288 52.208 220.728 52.544 221.328 52.544C222.296 52.544 222.848 51.672 222.92 50.064C222.704 50.712 222.128 51.12 221.352 51.12C220.264 51.12 219.456 50.32 219.456 49.232C219.456 48.112 220.296 47.272 221.408 47.272C222.68 47.272 223.488 48.4 223.488 50.192C223.488 51.952 222.584 53.128 221.224 53.128ZM221.384 50.536C222.16 50.536 222.712 49.984 222.712 49.192C222.712 48.4 222.168 47.856 221.392 47.856C220.608 47.856 220.08 48.4 220.08 49.192C220.08 49.984 220.608 50.536 221.384 50.536ZM225.182 53C225.182 50.552 225.79 48.896 227.022 47.984H223.974V47.4H227.814V47.984C226.478 48.792 225.806 50.464 225.806 53H225.182ZM227.856 53V52.2H228.656V53H227.856ZM229.181 50.872C230.005 50.248 230.365 49.192 230.365 47.4H230.989C230.989 49.008 230.661 50.152 229.989 50.872H232.349V47.4H232.973V50.872H233.853V51.456H232.973V53H232.349V51.456H229.181V50.872ZM234.736 53L238.928 47.272H239.616L235.424 53H234.736ZM238.576 53.128C237.824 53.128 237.216 52.52 237.216 51.768C237.216 51.016 237.824 50.408 238.576 50.408C239.328 50.408 239.936 51.016 239.936 51.768C239.936 52.52 239.328 53.128 238.576 53.128ZM238.576 52.544C239.008 52.544 239.352 52.2 239.352 51.768C239.352 51.336 239.008 50.992 238.576 50.992C238.144 50.992 237.8 51.336 237.8 51.768C237.8 52.2 238.144 52.544 238.576 52.544ZM235.696 49.992C234.944 49.992 234.336 49.384 234.336 48.632C234.336 47.88 234.944 47.272 235.696 47.272C236.448 47.272 237.056 47.88 237.056 48.632C237.056 49.384 236.448 49.992 235.696 49.992ZM235.696 49.408C236.128 49.408 236.472 49.064 236.472 48.632C236.472 48.2 236.128 47.856 235.696 47.856C235.264 47.856 234.92 48.2 234.92 48.632C234.92 49.064 235.264 49.408 235.696 49.408Z" fill="black"/>
<path d="M59.48 53V52.416H60.92V48.544C60.768 48.984 60.32 49.264 59.712 49.264H59.48V48.68H59.712C60.552 48.68 60.92 48.288 60.92 47.4H61.544V52.416H62.984V53H59.48ZM65.6465 53.128C64.3265 53.128 63.4625 51.968 63.4625 50.2C63.4625 48.432 64.3265 47.272 65.6465 47.272C66.9665 47.272 67.8305 48.432 67.8305 50.2C67.8305 51.968 66.9665 53.128 65.6465 53.128ZM65.6465 52.544C66.6145 52.544 67.2065 51.648 67.2065 50.2C67.2065 48.752 66.6145 47.856 65.6465 47.856C64.6785 47.856 64.0865 48.752 64.0865 50.2C64.0865 51.648 64.6785 52.544 65.6465 52.544ZM70.8965 53.128C69.5765 53.128 68.7125 51.968 68.7125 50.2C68.7125 48.432 69.5765 47.272 70.8965 47.272C72.2165 47.272 73.0805 48.432 73.0805 50.2C73.0805 51.968 72.2165 53.128 70.8965 53.128ZM70.8965 52.544C71.8645 52.544 72.4565 51.648 72.4565 50.2C72.4565 48.752 71.8645 47.856 70.8965 47.856C69.9285 47.856 69.3365 48.752 69.3365 50.2C69.3365 51.648 69.9285 52.544 70.8965 52.544ZM74.2044 53L78.3964 47.272H79.0844L74.8924 53H74.2044ZM78.0444 53.128C77.2924 53.128 76.6844 52.52 76.6844 51.768C76.6844 51.016 77.2924 50.408 78.0444 50.408C78.7964 50.408 79.4044 51.016 79.4044 51.768C79.4044 52.52 78.7964 53.128 78.0444 53.128ZM78.0444 52.544C78.4764 52.544 78.8204 52.2 78.8204 51.768C78.8204 51.336 78.4764 50.992 78.0444 50.992C77.6124 50.992 77.2684 51.336 77.2684 51.768C77.2684 52.2 77.6124 52.544 78.0444 52.544ZM75.1644 49.992C74.4124 49.992 73.8044 49.384 73.8044 48.632C73.8044 47.88 74.4124 47.272 75.1644 47.272C75.9164 47.272 76.5244 47.88 76.5244 48.632C76.5244 49.384 75.9164 49.992 75.1644 49.992ZM75.1644 49.408C75.5964 49.408 75.9404 49.064 75.9404 48.632C75.9404 48.2 75.5964 47.856 75.1644 47.856C74.7324 47.856 74.3884 48.2 74.3884 48.632C74.3884 49.064 74.7324 49.408 75.1644 49.408Z" fill="black"/>
<path d="M2.024 48.44C2.024 47.688 2.392 47.32 3.144 47.32H3.824V47.904H3.104C2.784 47.904 2.624 48.064 2.624 48.384V49H3.824V49.584H2.624V53H2.024V49.584H1.16V49H2.024V48.44ZM5.57213 53.128C4.80413 53.128 4.22813 52.592 4.22813 51.872C4.22813 51.12 4.86013 50.64 5.98013 50.544C6.62813 50.48 6.91613 50.304 6.89213 49.984C6.86813 49.656 6.51613 49.456 5.98013 49.456C5.33213 49.456 4.91613 49.784 4.91613 50.296L4.33213 50.216C4.33213 49.448 5.07613 48.872 6.06013 48.872C6.99613 48.872 7.51613 49.408 7.51613 50.352V53H6.91613V52.12C6.73213 52.736 6.22813 53.128 5.57213 53.128ZM5.69213 52.544C6.41213 52.544 6.91613 51.936 6.91613 51.056V50.736C6.76413 50.912 6.46813 51.016 6.02013 51.056C5.26013 51.12 4.85213 51.392 4.85213 51.84C4.85213 52.256 5.19613 52.544 5.69213 52.544ZM10.2871 53.128C9.16706 53.128 8.39906 52.264 8.39906 51.008C8.39906 49.752 9.16706 48.872 10.2791 48.872C11.2471 48.872 11.9671 49.528 12.0471 50.464L11.4231 50.544C11.3751 49.896 10.9111 49.456 10.2791 49.456C9.52706 49.456 9.02306 50.08 9.02306 51.008C9.02306 51.928 9.52706 52.544 10.2791 52.544C10.9111 52.544 11.3751 52.12 11.4231 51.504L12.0471 51.584C11.9671 52.496 11.2471 53.128 10.2871 53.128ZM14.6543 53.128C13.5343 53.128 12.7663 52.264 12.7663 50.992C12.7663 49.744 13.5103 48.872 14.5823 48.872C15.6543 48.872 16.3743 49.736 16.3743 51.016V51.16H13.3903C13.3903 51.984 13.9023 52.544 14.6463 52.544C15.1983 52.544 15.6143 52.24 15.7263 51.768L16.3503 51.848C16.1903 52.624 15.5183 53.128 14.6543 53.128ZM15.7503 50.616C15.7503 49.928 15.2623 49.456 14.5663 49.456C13.8703 49.456 13.3903 49.928 13.3903 50.616H15.7503Z" fill="black"/>
<path d="M133.224 68.128C132.328 68.128 131.68 67.6 131.4 66.632L132.048 66.552C132.288 67.208 132.728 67.544 133.328 67.544C134.296 67.544 134.848 66.672 134.92 65.064C134.704 65.712 134.128 66.12 133.352 66.12C132.264 66.12 131.456 65.32 131.456 64.232C131.456 63.112 132.296 62.272 133.408 62.272C134.68 62.272 135.488 63.4 135.488 65.192C135.488 66.952 134.584 68.128 133.224 68.128ZM133.384 65.536C134.16 65.536 134.712 64.984 134.712 64.192C134.712 63.4 134.168 62.856 133.392 62.856C132.608 62.856 132.08 63.4 132.08 64.192C132.08 64.984 132.608 65.536 133.384 65.536ZM138.553 68.128C137.233 68.128 136.369 66.968 136.369 65.2C136.369 63.432 137.233 62.272 138.553 62.272C139.873 62.272 140.737 63.432 140.737 65.2C140.737 66.968 139.873 68.128 138.553 68.128ZM138.553 67.544C139.521 67.544 140.113 66.648 140.113 65.2C140.113 63.752 139.521 62.856 138.553 62.856C137.585 62.856 136.993 63.752 136.993 65.2C136.993 66.648 137.585 67.544 138.553 67.544ZM141.418 68V67.2H142.218V68H141.418ZM145.144 68.128C143.856 68.128 142.984 67.472 142.984 66.496C142.984 65.768 143.456 65.208 144.168 65.072C143.576 64.896 143.192 64.408 143.192 63.776C143.192 62.88 143.984 62.272 145.136 62.272C146.288 62.272 147.08 62.88 147.08 63.776C147.08 64.408 146.688 64.904 146.096 65.072C146.808 65.216 147.288 65.768 147.288 66.504C147.288 67.48 146.432 68.128 145.144 68.128ZM145.136 67.544C146.056 67.544 146.664 67.112 146.664 66.456C146.664 65.8 146.064 65.376 145.136 65.376C144.208 65.376 143.608 65.8 143.608 66.456C143.608 67.112 144.216 67.544 145.136 67.544ZM145.136 64.792C145.928 64.792 146.456 64.4 146.456 63.816C146.456 63.232 145.936 62.856 145.136 62.856C144.336 62.856 143.816 63.232 143.816 63.816C143.816 64.4 144.344 64.792 145.136 64.792ZM148.329 68L152.521 62.272H153.209L149.017 68H148.329ZM152.169 68.128C151.417 68.128 150.809 67.52 150.809 66.768C150.809 66.016 151.417 65.408 152.169 65.408C152.921 65.408 153.529 66.016 153.529 66.768C153.529 67.52 152.921 68.128 152.169 68.128ZM152.169 67.544C152.601 67.544 152.945 67.2 152.945 66.768C152.945 66.336 152.601 65.992 152.169 65.992C151.737 65.992 151.393 66.336 151.393 66.768C151.393 67.2 151.737 67.544 152.169 67.544ZM149.289 64.992C148.537 64.992 147.929 64.384 147.929 63.632C147.929 62.88 148.537 62.272 149.289 62.272C150.041 62.272 150.649 62.88 150.649 63.632C150.649 64.384 150.041 64.992 149.289 64.992ZM149.289 64.408C149.721 64.408 150.065 64.064 150.065 63.632C150.065 63.2 149.721 62.856 149.289 62.856C148.857 62.856 148.513 63.2 148.513 63.632C148.513 64.064 148.857 64.408 149.289 64.408Z" fill="black"/>
<path d="M221.224 68.128C220.328 68.128 219.68 67.6 219.4 66.632L220.048 66.552C220.288 67.208 220.728 67.544 221.328 67.544C222.296 67.544 222.848 66.672 222.92 65.064C222.704 65.712 222.128 66.12 221.352 66.12C220.264 66.12 219.456 65.32 219.456 64.232C219.456 63.112 220.296 62.272 221.408 62.272C222.68 62.272 223.488 63.4 223.488 65.192C223.488 66.952 222.584 68.128 221.224 68.128ZM221.384 65.536C222.16 65.536 222.712 64.984 222.712 64.192C222.712 63.4 222.168 62.856 221.392 62.856C220.608 62.856 220.08 63.4 220.08 64.192C220.08 64.984 220.608 65.536 221.384 65.536ZM226.553 68.128C225.233 68.128 224.369 66.968 224.369 65.2C224.369 63.432 225.233 62.272 226.553 62.272C227.873 62.272 228.737 63.432 228.737 65.2C228.737 66.968 227.873 68.128 226.553 68.128ZM226.553 67.544C227.521 67.544 228.113 66.648 228.113 65.2C228.113 63.752 227.521 62.856 226.553 62.856C225.585 62.856 224.993 63.752 224.993 65.2C224.993 66.648 225.585 67.544 226.553 67.544ZM229.418 68V67.2H230.218V68H229.418ZM230.744 65.872C231.568 65.248 231.928 64.192 231.928 62.4H232.552C232.552 64.008 232.224 65.152 231.552 65.872H233.912V62.4H234.536V65.872H235.416V66.456H234.536V68H233.912V66.456H230.744V65.872ZM236.298 68L240.49 62.272H241.178L236.986 68H236.298ZM240.138 68.128C239.386 68.128 238.778 67.52 238.778 66.768C238.778 66.016 239.386 65.408 240.138 65.408C240.89 65.408 241.498 66.016 241.498 66.768C241.498 67.52 240.89 68.128 240.138 68.128ZM240.138 67.544C240.57 67.544 240.914 67.2 240.914 66.768C240.914 66.336 240.57 65.992 240.138 65.992C239.706 65.992 239.362 66.336 239.362 66.768C239.362 67.2 239.706 67.544 240.138 67.544ZM237.258 64.992C236.506 64.992 235.898 64.384 235.898 63.632C235.898 62.88 236.506 62.272 237.258 62.272C238.01 62.272 238.618 62.88 238.618 63.632C238.618 64.384 238.01 64.992 237.258 64.992ZM237.258 64.408C237.69 64.408 238.034 64.064 238.034 63.632C238.034 63.2 237.69 62.856 237.258 62.856C236.826 62.856 236.482 63.2 236.482 63.632C236.482 64.064 236.826 64.408 237.258 64.408Z" fill="black"/>
<path d="M59.48 68V67.416H60.92V63.544C60.768 63.984 60.32 64.264 59.712 64.264H59.48V63.68H59.712C60.552 63.68 60.92 63.288 60.92 62.4H61.544V67.416H62.984V68H59.48ZM65.6465 68.128C64.3265 68.128 63.4625 66.968 63.4625 65.2C63.4625 63.432 64.3265 62.272 65.6465 62.272C66.9665 62.272 67.8305 63.432 67.8305 65.2C67.8305 66.968 66.9665 68.128 65.6465 68.128ZM65.6465 67.544C66.6145 67.544 67.2065 66.648 67.2065 65.2C67.2065 63.752 66.6145 62.856 65.6465 62.856C64.6785 62.856 64.0865 63.752 64.0865 65.2C64.0865 66.648 64.6785 67.544 65.6465 67.544ZM70.8965 68.128C69.5765 68.128 68.7125 66.968 68.7125 65.2C68.7125 63.432 69.5765 62.272 70.8965 62.272C72.2165 62.272 73.0805 63.432 73.0805 65.2C73.0805 66.968 72.2165 68.128 70.8965 68.128ZM70.8965 67.544C71.8645 67.544 72.4565 66.648 72.4565 65.2C72.4565 63.752 71.8645 62.856 70.8965 62.856C69.9285 62.856 69.3365 63.752 69.3365 65.2C69.3365 66.648 69.9285 67.544 70.8965 67.544ZM74.2044 68L78.3964 62.272H79.0844L74.8924 68H74.2044ZM78.0444 68.128C77.2924 68.128 76.6844 67.52 76.6844 66.768C76.6844 66.016 77.2924 65.408 78.0444 65.408C78.7964 65.408 79.4044 66.016 79.4044 66.768C79.4044 67.52 78.7964 68.128 78.0444 68.128ZM78.0444 67.544C78.4764 67.544 78.8204 67.2 78.8204 66.768C78.8204 66.336 78.4764 65.992 78.0444 65.992C77.6124 65.992 77.2684 66.336 77.2684 66.768C77.2684 67.2 77.6124 67.544 78.0444 67.544ZM75.1644 64.992C74.4124 64.992 73.8044 64.384 73.8044 63.632C73.8044 62.88 74.4124 62.272 75.1644 62.272C75.9164 62.272 76.5244 62.88 76.5244 63.632C76.5244 64.384 75.9164 64.992 75.1644 64.992ZM75.1644 64.408C75.5964 64.408 75.9404 64.064 75.9404 63.632C75.9404 63.2 75.5964 62.856 75.1644 62.856C74.7324 62.856 74.3884 63.2 74.3884 63.632C74.3884 64.064 74.7324 64.408 75.1644 64.408Z" fill="black"/>
<path d="M1.6 68V64H2.2V68H1.6ZM1.528 63.36V62.608H2.28V63.36H1.528ZM3.39688 68V64H3.99688V65.056C4.12488 64.384 4.43688 64 4.88488 64H5.62088V64.584H4.96488C4.32488 64.584 3.99688 65.128 3.99688 66.176V68H3.39688ZM6.30313 68V64H6.90313V68H6.30313ZM6.23112 63.36V62.608H6.98313V63.36H6.23112ZM9.52494 68.128C8.54894 68.128 7.78094 67.584 7.78094 66.64L8.36494 66.56C8.36494 67.2 8.90894 67.544 9.54894 67.544C10.0529 67.544 10.5409 67.328 10.5409 66.888C10.5409 65.88 7.98894 66.464 7.98894 65.016C7.98894 64.216 8.76494 63.872 9.53294 63.872C10.3329 63.872 10.9969 64.248 10.9969 65.024L10.4129 65.104C10.4129 64.64 9.98094 64.456 9.49294 64.456C9.06094 64.456 8.61294 64.6 8.61294 64.984C8.61294 65.888 11.1649 65.392 11.1649 66.864C11.1649 67.608 10.4849 68.128 9.52494 68.128Z" fill="black"/>
</svg>
